<?xml version="1.0" standalone="no"?>
<!DOCTYPE svg PUBLIC "-//W3C//DTD SVG 20010904//EN"
 "http://www.w3.org/TR/2001/REC-SVG-20010904/DTD/svg10.dtd">
<svg version="1.0" xmlns="http://www.w3.org/2000/svg"
 width="225.000000pt" height="225.000000pt" viewBox="0 0 225.000000 225.000000"
 preserveAspectRatio="xMidYMid meet">

<g transform="translate(0.000000,225.000000) scale(0.100000,-0.100000)"
fill="#000000" stroke="none">
<path d="M1410 2086 c-19 -13 -56 -47 -82 -76 -36 -39 -52 -51 -65 -45 -10 4
-46 11 -80 15 -39 5 -81 19 -110 36 -44 25 -57 28 -144 28 -76 0 -102 -4 -124
-18 -34 -22 -59 -80 -49 -115 l7 -26 7 25 c5 21 8 16 13 -25 5 -40 3 -53 -11
-65 -10 -8 -16 -22 -14 -31 2 -11 -6 -19 -22 -23 -30 -7 -34 -19 -38 -121 l-3
-80 50 -16 50 -16 3 -51 c4 -71 -19 -118 -112 -225 -88 -102 -95 -128 -46
-179 17 -17 30 -33 30 -35 0 -22 -84 -164 -165 -278 -54 -77 -118 -168 -142
-202 -53 -75 -70 -120 -79 -213 -5 -57 -4 -73 9 -83 8 -7 20 -28 26 -49 7 -20
24 -48 38 -62 33 -33 51 -33 393 0 393 38 480 40 638 18 132 -18 134 -18 148
1 27 37 11 53 -77 77 -80 21 -141 52 -176 90 l-21 23 24 70 c41 121 28 211
-41 280 -23 22 -71 64 -108 93 -75 58 -107 102 -107 145 0 28 1 27 36 -20 21
-26 98 -108 172 -182 l134 -135 58 -4 c69 -5 129 13 195 58 132 91 184 309
109 457 l-28 54 52 45 c64 56 97 123 122 248 21 103 46 170 79 212 27 34 37
106 21 145 -26 62 -64 63 -276 9 -87 -22 -158 -39 -159 -38 -1 2 -17 39 -35
83 -24 58 -33 97 -34 140 -1 57 -9 85 -24 85 -4 0 -23 -11 -42 -24z m41 -109
c9 -37 27 -92 39 -122 12 -30 20 -61 17 -69 -3 -7 -30 -28 -61 -45 -97 -56
-191 -137 -252 -218 -118 -157 -124 -163 -144 -153 -30 16 -59 64 -66 107 l-6
41 78 23 c67 20 89 32 146 84 37 33 83 73 102 88 62 50 71 127 22 197 l-24 35
51 53 c29 29 58 51 66 50 9 -2 22 -30 32 -71z m491 -144 c19 -17 24 -68 9 -92
-5 -8 -51 -23 -103 -33 -51 -11 -144 -39 -206 -64 -67 -26 -130 -44 -154 -44
-47 0 -62 -10 -218 -141 -63 -53 -126 -102 -138 -108 -22 -12 -23 -11 -17 11
27 84 194 265 315 340 175 109 457 181 512 131z m-47 -164 c11 -17 -15 -96
-39 -122 -22 -24 -25 -24 -177 -21 -85 2 -158 4 -163 4 -5 0 -1 9 10 21 65 71
343 161 369 118z m-127 -203 c62 -29 66 -33 62 -71 -4 -45 -21 -48 -106 -19
-73 24 -129 31 -303 34 -18 0 44 68 74 81 11 5 63 8 115 6 79 -3 106 -8 158
-31z m-110 -110 c104 -28 126 -63 73 -117 -37 -37 -79 -38 -138 -3 -81 47
-151 65 -272 71 -110 6 -113 6 -85 21 16 9 52 21 79 28 70 17 278 17 343 0z
m-237 -92 c81 -24 184 -81 239 -133 75 -70 63 -94 -36 -72 -40 9 -70 25 -112
61 -106 87 -158 101 -318 81 -103 -12 -126 -8 -122 22 7 48 234 75 349 41z
m-46 -147 c35 -22 64 -31 98 -32 62 -3 147 -54 205 -124 47 -57 54 -98 26
-141 -57 -85 -90 -67 -220 115 -69 96 -171 205 -193 205 -6 0 -11 5 -11 11 0
15 36 2 95 -34z m-191 -66 c51 -80 82 -115 153 -173 28 -22 92 -213 76 -229
-20 -20 -52 2 -89 62 -21 35 -57 76 -85 97 -59 44 -82 88 -109 208 -34 155
-25 161 54 35z m117 33 c86 -63 167 -162 214 -259 53 -110 63 -152 40 -161
-11 -5 -32 8 -67 42 -59 59 -89 107 -118 193 -20 59 -58 126 -110 194 -29 36
-17 34 41 -9z m-508 -337 c38 -62 47 -107 25 -124 -7 -5 -47 -23 -88 -40 -41
-17 -126 -54 -187 -82 l-113 -50 0 39 c0 36 11 50 147 200 168 185 141 178
216 57z"/>
</g>
</svg>
